<?xml version="1.0" encoding="utf-8"?>
<!-- Generator: Adobe Illustrator 16.0.4, SVG Export Plug-In . SVG Version: 6.00 Build 0)  -->
<!DOCTYPE svg PUBLIC "-//W3C//DTD SVG 1.1//EN" "http://www.w3.org/Graphics/SVG/1.1/DTD/svg11.dtd">
<svg version="1.1" id="gr_x5F_icon08_x5F_recipe" xmlns="http://www.w3.org/2000/svg" xmlns:xlink="http://www.w3.org/1999/xlink"
	 x="0px" y="0px" width="250px" height="250px" viewBox="0 0 250 250" enable-background="new 0 0 250 250" xml:space="preserve">
<g id="gr_x5F_big_8_">
	<path id="gr_178_" fill="#F3BA48" d="M237.664,172.702c0,9.539-6.76,21.251-15.021,26.019l-82.621,47.701
		c-8.263,4.771-21.78,4.771-30.043,0l-82.621-47.701c-8.263-4.768-15.021-16.479-15.021-26.019V77.298
		c0-9.539,6.759-21.25,15.021-26.018l82.621-47.702c8.263-4.771,21.78-4.771,30.043,0l82.621,47.702
		c8.262,4.768,15.021,16.479,15.021,26.018V172.702z"/>
	<path fill="#FFFFFF" d="M169.263,129.238c-0.642,0-1.276,0.034-1.904,0.101L148.067,95.93l3.24-1.873l-12.981-22.496l-9.943,5.741
		c-3.47,2.005-4.656,6.431-2.654,9.901l5.741,9.94c1.998,3.467,6.432,4.653,9.898,2.654l2.113-1.224l18.568,32.161
		c-1.862,0.802-3.551,1.922-5.029,3.265l-31.277-18.304l2.329-4.032l-33.74-19.479l-8.607,14.91
		c-3.003,5.2-1.224,11.848,3.976,14.851l14.91,8.608c5.2,3.003,11.852,1.221,14.854-3.979l3.498-6.058l30.521,17.864
		c-0.963,1.66-1.682,3.481-2.079,5.424H116.18v-4.07H62.5v23.721c0,8.272,6.707,14.983,14.977,14.983h23.72
		c8.272,0,14.983-6.711,14.983-14.983v-13.965h34.972c1.008,9.106,8.743,16.214,18.111,16.214c10.059,0,18.237-8.179,18.237-18.23
		C187.5,137.417,179.321,129.238,169.263,129.238z M169.263,159.198c-6.463,0-11.723-5.26-11.723-11.727
		c0-6.47,5.26-11.729,11.723-11.729c6.47,0,11.732,5.26,11.732,11.729C180.995,153.938,175.732,159.198,169.263,159.198z"/>
</g>
</svg>
