<svg xmlns="http://www.w3.org/2000/svg" width="612" height="454.715"><path fill="#FFBAB0" d="M331.456 52.915L309.293 75.08 287.13 52.914c-50.326-50.32-131.915-50.32-182.235 0-50.32 50.32-50.32 131.91 0 182.23l22.164 22.167 182.23 182.23 182.23-182.23 22.16-22.17c50.32-50.32 50.32-131.9 0-182.22-50.32-50.32-131.91-50.32-182.23 0z"/><g fill="#783741"><path d="M309.293 454.716c-3.885 0-7.764-1.482-10.728-4.445L94.167 245.88c-56.162-56.158-56.162-147.533 0-203.686C121.367 14.98 157.537 0 196.012 0c38.47 0 74.644 14.98 101.85 42.187l11.436 11.436 11.437-11.436C347.935 14.98 384.105 0 422.58 0c38.47 0 74.645 14.98 101.846 42.187 27.206 27.202 42.188 63.37 42.188 101.845 0 38.47-14.98 74.644-42.188 101.845L320.03 450.275c-2.973 2.96-6.853 4.44-10.737 4.44zM196.013 30.348c-30.37 0-58.915 11.825-80.39 33.296-44.328 44.327-44.328 116.448 0 160.774l193.67 193.67 193.664-193.67c44.327-44.326 44.327-116.447 0-160.774-21.47-21.47-50.022-33.296-80.39-33.296-30.368 0-58.914 11.825-80.39 33.296L320.012 85.81c-5.928 5.927-15.528 5.927-21.456 0l-22.164-22.166c-21.467-21.47-50.02-33.296-80.38-33.296z"/><path d="M309.293 419.802c-3.885 0-7.764-1.482-10.728-4.447L118.293 235.093l-19.625-8.826c-7.642-3.438-11.056-12.422-7.617-20.063 3.44-7.644 12.42-11.062 20.07-7.617l22.17 9.97c1.68.754 3.21 1.806 4.51 3.11L309.3 383.17l171.5-171.503c.68-.683 1.42-1.295 2.217-1.83l22.16-15.028c6.94-4.71 16.374-2.89 21.078 4.04 4.7 6.93 2.885 16.37-4.05 21.07l-20.97 14.215-181.21 181.206c-2.963 2.966-6.843 4.448-10.727 4.448z" opacity=".2"/></g><path fill="#783741" d="M70.81 222.054H15.173c-8.38 0-15.173-6.79-15.173-15.172 0-8.382 6.792-15.175 15.173-15.175H70.81c8.38 0 15.173 6.793 15.173 15.175 0 8.38-6.792 15.172-15.173 15.172z"/><path fill="#FFBAB0" d="M75.868 207.372h131.504l40.463-85.984 65.752 182.082 55.636-156.793 25.29 55.637h151.735"/><path fill="#783741" d="M313.587 313.587c-4.264 0-8.067-2.672-9.514-6.678L246.6 147.76l-30.078 63.916c-1.67 3.544-5.235 5.805-9.155 5.805H75.863c-5.59 0-10.116-4.53-10.116-10.11s4.527-10.11 10.116-10.11h125.08l37.732-80.174c1.74-3.696 5.255-6 9.625-5.796 4.087.19 7.653 2.83 9.04 6.667l56.157 155.505 46.188-130.16c1.376-3.89 4.98-6.544 9.1-6.72 4.225-.12 7.937 2.165 9.642 5.92l22.6 49.706h145.22c5.585 0 10.116 4.53 10.116 10.116s-4.53 10.118-10.115 10.118h-151.74c-3.966 0-7.566-2.316-9.206-5.934l-14.926-32.83-47.26 133.19c-1.427 4.023-5.23 6.72-9.504 6.73-.005.002-.015.002-.025.002z"/><path fill="#783741" d="M596.826 216.997h-45.52c-8.382 0-15.175-6.793-15.175-15.174 0-8.382 6.8-15.173 15.18-15.173h45.52c8.38 0 15.18 6.79 15.18 15.173 0 8.38-6.79 15.174-15.17 15.174z"/></svg>