<svg xmlns="http://www.w3.org/2000/svg" width="612" height="612"><circle cx="305.879" cy="306" r="306" fill="#324A5E"/><path fill="#FFF" d="M519.107 210.68c0-47.48-38.492-85.973-85.972-85.973-16.393 0-31.57 4.614-44.563 12.507-20.278-22.83-49.785-37.28-82.814-37.28-32.907 0-62.536 14.45-82.814 37.28-12.993-7.893-28.17-12.507-44.564-12.507-47.48 0-85.972 38.493-85.972 85.972 0 36.54 22.83 67.63 54.886 80.02v203.63c104.307-23.32 212.38-23.32 316.686 0V290.7c32.3-12.386 55.127-43.47 55.127-80.02z"/><path fill="#ACB3BA" d="M464.222 432.893v61.564c-104.307-23.314-212.5-23.314-316.686 0v-61.564c104.307-23.315 212.38-23.315 316.686 0z"/><path fill="#CED5E0" d="M121.793 232.17c1.093 2.43 2.308 4.857 3.765 7.044 1.335 2.187 2.914 4.372 4.493 6.437 1.58 2.07 3.4 4.01 5.23 5.83 1.82 1.82 3.89 3.52 5.95 5.1 2.07 1.46 4.25 2.92 6.56 4.25 2.31 1.22 4.5 2.43 6.92 3.28 2.31.97 4.86 1.7 7.29 2.43 2.43.73 4.98 1.09 7.53 1.46 2.55.25 5.1.49 7.53.49 1.22 0 2.55 0 3.89-.12 1.22-.12 2.43-.24 3.77-.36 4.98-.73 9.84-2.06 14.45-3.88 2.31-.97 4.49-2.06 6.68-3.28 2.06-1.21 4.37-2.67 6.56-4.12l13.48-8.62 2.918-1.943 2.428 2.67 7.896 8.624c2.55 2.794 5.22 5.83 7.77 8.5 2.677 2.916 5.227 4.98 8.14 7.41 2.916 2.185 5.95 4.37 9.11 6.19 12.505 7.65 27.2 11.66 41.89 11.537 1.58-.12 3.885 0 5.585-.242 1.7-.12 3.52-.24 5.345-.483 3.643-.485 7.163-1.21 10.81-2.185 7.04-1.944 13.84-4.86 20.154-8.624 6.31-3.76 12.144-8.256 17.24-13.6 2.55-2.67 5.224-5.707 7.77-8.5l7.896-8.62 2.43-2.67 2.914 1.94 13.48 8.62c2.306 1.457 4.49 2.91 6.68 4.13 2.06 1.21 4.37 2.306 6.68 3.276 4.61 1.94 9.47 3.28 14.446 3.885 2.43.36 5.1.607 7.523.486 2.793 0 5.102-.247 7.65-.37 2.55-.36 4.98-.85 7.53-1.454 2.43-.61 4.98-1.34 7.283-2.43 2.43-.85 4.737-2.063 6.92-3.28 2.31-1.21 4.375-2.67 6.56-4.25 2.065-1.58 4.01-3.28 5.95-5.1 1.82-1.82 3.645-3.762 5.22-5.83 1.7-2.06 3.16-4.25 4.496-6.433 1.454-2.185 2.55-4.612 3.762-7.04-.85 2.55-1.82 4.98-2.914 7.41-1.215 2.43-2.43 4.86-3.886 7.04-1.46 2.31-3.16 4.375-4.86 6.44s-3.764 4.006-5.706 5.83c-2.06 1.82-4.25 3.52-6.433 4.98-2.31 1.455-4.612 2.912-7.163 4.13-2.43 1.333-4.98 2.304-7.65 3.153-2.67.97-5.34 1.58-8.01 2.063-2.79.483-5.705.85-8.255.97-2.795.243-5.588.12-8.38 0-5.587-.36-11.17-1.58-16.395-3.52-2.67-.97-5.22-2.065-7.77-3.4-2.43-1.337-4.733-2.67-7.04-4.01l-13.724-8.016 5.46-.85-7.65 8.863c-2.55 2.915-4.98 5.83-7.77 8.864-2.67 3.036-5.71 5.83-8.867 8.5-3.16 2.55-6.44 5.1-9.96 7.165-6.92 4.37-14.57 7.65-22.46 9.957-4.01 1.093-8.02 2.063-12.02 2.55-2.067.364-4.13.485-6.197.73-2.184.24-3.762.12-6.07.24-16.512-.12-32.905-4.736-46.87-13.357-3.52-2.064-6.8-4.615-9.96-7.165-3.033-2.55-6.31-5.588-8.86-8.5-2.79-3.038-5.1-5.95-7.77-8.866l-7.65-8.864 5.466.85-13.84 8.017c-2.308 1.34-4.49 2.67-7.04 4.01-2.55 1.33-5.1 2.427-7.77 3.4-5.226 1.94-10.81 3.155-16.398 3.52-1.335.12-2.792.12-4.25.24-1.335 0-2.67 0-4.13-.12-2.79-.12-5.583-.487-8.255-.97-2.67-.61-5.46-1.217-8.01-2.066-2.55-.97-5.22-1.94-7.65-3.16-2.43-1.21-4.857-2.67-7.164-4.123-2.302-1.58-4.37-3.28-6.43-4.98-1.943-1.82-4.007-3.763-5.707-5.83-1.7-2.062-3.4-4.13-4.855-6.434-1.58-2.186-2.793-4.613-3.886-7.04-1.95-2.67-2.92-5.22-3.77-7.77z"/></svg>