<?xml version="1.0" encoding="iso-8859-1"?>
<!-- Generator: Adobe Illustrator 19.0.0, SVG Export Plug-In . SVG Version: 6.00 Build 0)  -->
<svg version="1.1" id="Layer_1" xmlns="http://www.w3.org/2000/svg" xmlns:xlink="http://www.w3.org/1999/xlink" x="0px" y="0px"
	 viewBox="0 0 504 504" style="enable-background:new 0 0 504 504;" xml:space="preserve">
<circle style="fill:#324A5E;" cx="252" cy="252" r="252"/>
<path style="fill:#FFFFFF;" d="M427.6,173.5c0-39.1-31.7-70.8-70.8-70.8c-13.5,0-26,3.8-36.7,10.3c-16.7-18.8-41-30.7-68.2-30.7
	c-27.1,0-51.5,11.9-68.2,30.7c-10.7-6.5-23.2-10.3-36.7-10.3c-39.1,0-70.8,31.7-70.8,70.8c0,30.1,18.8,55.7,45.2,65.9
	c0,55.9,0,111.8,0,167.7c85.9-19.2,174.9-19.2,260.8,0c0-55.9,0-111.8,0-167.7C408.8,229.2,427.6,203.6,427.6,173.5z"/>
<path style="fill:#ACB3BA;" d="M382.4,356.5v50.7c-85.9-19.2-175-19.2-260.8,0v-50.7C207.5,337.3,296.5,337.3,382.4,356.5z"/>
<path style="fill:#CED5E0;" d="M100.4,191.2c0.9,2,1.9,4,3.1,5.8c1.1,1.8,2.4,3.6,3.7,5.3c1.3,1.7,2.8,3.3,4.3,4.8s3.2,2.9,4.9,4.2
	c1.7,1.2,3.5,2.4,5.4,3.5c1.9,1,3.7,2,5.7,2.7c1.9,0.8,4,1.4,6,2s4.1,0.9,6.2,1.2c2.1,0.2,4.2,0.4,6.2,0.4c1,0,2.1,0,3.2-0.1
	c1-0.1,2-0.2,3.1-0.3c4.1-0.6,8.1-1.7,11.9-3.2c1.9-0.8,3.7-1.7,5.5-2.7c1.7-1,3.6-2.2,5.4-3.4l11.1-7.1l2.4-1.6l2,2.2l6.5,7.1
	c2.1,2.3,4.3,4.8,6.4,7c2.2,2.4,4.3,4.1,6.7,6.1c2.4,1.8,4.9,3.6,7.5,5.1c10.3,6.3,22.4,9.6,34.5,9.5c1.3-0.1,3.2,0,4.6-0.2
	c1.4-0.1,2.9-0.2,4.4-0.4c3-0.4,5.9-1,8.9-1.8c5.8-1.6,11.4-4,16.6-7.1s10-6.8,14.2-11.2c2.1-2.2,4.3-4.7,6.4-7l6.5-7.1l2-2.2
	l2.4,1.6l11.1,7.1c1.9,1.2,3.7,2.4,5.5,3.4c1.7,1,3.6,1.9,5.5,2.7c3.8,1.6,7.8,2.7,11.9,3.2c2,0.3,4.2,0.5,6.2,0.4
	c2.3,0,4.2-0.2,6.3-0.3c2.1-0.3,4.1-0.7,6.2-1.2c2-0.5,4.1-1.1,6-2c2-0.7,3.9-1.7,5.7-2.7c1.9-1,3.6-2.2,5.4-3.5
	c1.7-1.3,3.3-2.7,4.9-4.2c1.5-1.5,3-3.1,4.3-4.8c1.4-1.7,2.6-3.5,3.7-5.3c1.2-1.8,2.1-3.8,3.1-5.8c-0.7,2.1-1.5,4.1-2.4,6.1
	c-1,2-2,4-3.2,5.8c-1.2,1.9-2.6,3.6-4,5.3s-3.1,3.3-4.7,4.8c-1.7,1.5-3.5,2.9-5.3,4.1c-1.9,1.2-3.8,2.4-5.9,3.4
	c-2,1.1-4.1,1.9-6.3,2.6c-2.2,0.8-4.4,1.3-6.6,1.7c-2.3,0.4-4.7,0.7-6.8,0.8c-2.3,0.2-4.6,0.1-6.9,0c-4.6-0.3-9.2-1.3-13.5-2.9
	c-2.2-0.8-4.3-1.7-6.4-2.8c-2-1.1-3.9-2.2-5.8-3.3l-11.3-6.6l4.5-0.7l-6.3,7.3c-2.1,2.4-4.1,4.8-6.4,7.3c-2.2,2.5-4.7,4.8-7.3,7
	c-2.6,2.1-5.3,4.2-8.2,5.9c-5.7,3.6-12,6.3-18.5,8.2c-3.3,0.9-6.6,1.7-9.9,2.1c-1.7,0.3-3.4,0.4-5.1,0.6c-1.8,0.2-3.1,0.1-5,0.2
	c-13.6-0.1-27.1-3.9-38.6-11c-2.9-1.7-5.6-3.8-8.2-5.9c-2.5-2.1-5.2-4.6-7.3-7c-2.3-2.5-4.2-4.9-6.4-7.3l-6.3-7.3l4.5,0.7l-11.4,6.6
	c-1.9,1.1-3.7,2.2-5.8,3.3s-4.2,2-6.4,2.8c-4.3,1.6-8.9,2.6-13.5,2.9c-1.1,0.1-2.3,0.1-3.5,0.2c-1.1,0-2.2,0-3.4-0.1
	c-2.3-0.1-4.6-0.4-6.8-0.8c-2.2-0.5-4.5-1-6.6-1.7c-2.1-0.8-4.3-1.6-6.3-2.6s-4-2.2-5.9-3.4c-1.9-1.3-3.6-2.7-5.3-4.1
	c-1.6-1.5-3.3-3.1-4.7-4.8c-1.4-1.7-2.8-3.4-4-5.3c-1.3-1.8-2.3-3.8-3.2-5.8C101.9,195.4,101.1,193.3,100.4,191.2z"/>
<g>
</g>
<g>
</g>
<g>
</g>
<g>
</g>
<g>
</g>
<g>
</g>
<g>
</g>
<g>
</g>
<g>
</g>
<g>
</g>
<g>
</g>
<g>
</g>
<g>
</g>
<g>
</g>
<g>
</g>
</svg>
